<svg xmlns="http://www.w3.org/2000/svg" viewBox="0 0 640 400" shape-rendering="crispEdges"><title>Browser workflow / automation study - original concept illustration, not project output</title><rect x="0" y="0" width="640" height="400" fill="#162321"/><rect x="0" y="0" width="1" height="400" fill="#1d2e29"/><rect x="24" y="0" width="1" height="400" fill="#1d2e29"/><rect x="48" y="0" width="1" height="400" fill="#1d2e29"/><rect x="72" y="0" width="1" height="400" fill="#1d2e29"/><rect x="96" y="0" width="1" height="400" fill="#1d2e29"/><rect x="120" y="0" width="1" height="400" fill="#1d2e29"/><rect x="144" y="0" width="1" height="400" fill="#1d2e29"/><rect x="168" y="0" width="1" height="400" fill="#1d2e29"/><rect x="192" y="0" width="1" height="400" fill="#1d2e29"/><rect x="216" y="0" width="1" height="400" fill="#1d2e29"/><rect x="240" y="0" width="1" height="400" fill="#1d2e29"/><rect x="264" y="0" width="1" height="400" fill="#1d2e29"/><rect x="288" y="0" width="1" height="400" fill="#1d2e29"/><rect x="312" y="0" width="1" height="400" fill="#1d2e29"/><rect x="336" y="0" width="1" height="400" fill="#1d2e29"/><rect x="360" y="0" width="1" height="400" fill="#1d2e29"/><rect x="384" y="0" width="1" height="400" fill="#1d2e29"/><rect x="408" y="0" width="1" height="400" fill="#1d2e29"/><rect x="432" y="0" width="1" height="400" fill="#1d2e29"/><rect x="456" y="0" width="1" height="400" fill="#1d2e29"/><rect x="480" y="0" width="1" height="400" fill="#1d2e29"/><rect x="504" y="0" width="1" height="400" fill="#1d2e29"/><rect x="528" y="0" width="1" height="400" fill="#1d2e29"/><rect x="552" y="0" width="1" height="400" fill="#1d2e29"/><rect x="576" y="0" width="1" height="400" fill="#1d2e29"/><rect x="600" y="0" width="1" height="400" fill="#1d2e29"/><rect x="624" y="0" width="1" height="400" fill="#1d2e29"/><rect x="0" y="0" width="640" height="1" fill="#1d2e29"/><rect x="0" y="24" width="640" height="1" fill="#1d2e29"/><rect x="0" y="48" width="640" height="1" fill="#1d2e29"/><rect x="0" y="72" width="640" height="1" fill="#1d2e29"/><rect x="0" y="96" width="640" height="1" fill="#1d2e29"/><rect x="0" y="120" width="640" height="1" fill="#1d2e29"/><rect x="0" y="144" width="640" height="1" fill="#1d2e29"/><rect x="0" y="168" width="640" height="1" fill="#1d2e29"/><rect x="0" y="192" width="640" height="1" fill="#1d2e29"/><rect x="0" y="216" width="640" height="1" fill="#1d2e29"/><rect x="0" y="240" width="640" height="1" fill="#1d2e29"/><rect x="0" y="264" width="640" height="1" fill="#1d2e29"/><rect x="0" y="288" width="640" height="1" fill="#1d2e29"/><rect x="0" y="312" width="640" height="1" fill="#1d2e29"/><rect x="0" y="336" width="640" height="1" fill="#1d2e29"/><rect x="0" y="360" width="640" height="1" fill="#1d2e29"/><rect x="0" y="384" width="640" height="1" fill="#1d2e29"/><rect x="26" y="27" width="6" height="6" fill="#b9add2"/><text x="46" y="34" fill="#b9add2" font-family="monospace" font-size="11" letter-spacing="2">BROWSER WORKFLOW / AUTOMATION STUDY</text><rect x="37" y="67" width="11" height="2" fill="#4a6250"/><rect x="37" y="67" width="2" height="11" fill="#4a6250"/><rect x="592" y="67" width="11" height="2" fill="#4a6250"/><rect x="592" y="67" width="2" height="11" fill="#4a6250"/><rect x="37" y="350" width="11" height="2" fill="#4a6250"/><rect x="37" y="350" width="2" height="11" fill="#4a6250"/><rect x="592" y="350" width="11" height="2" fill="#4a6250"/><rect x="592" y="350" width="2" height="11" fill="#4a6250"/><rect x="92" y="102" width="259" height="218" fill="#0e1815"/><rect x="86" y="96" width="259" height="218" fill="#415342"/><rect x="89" y="99" width="253" height="212" fill="#203029"/><rect x="89" y="99" width="253" height="24" fill="#334b3d"/><rect x="98" y="107" width="5" height="5" fill="#b9add2"/><rect x="110" y="107" width="5" height="5" fill="#b9add2"/><rect x="122" y="107" width="5" height="5" fill="#b9add2"/><rect x="109" y="146" width="205" height="29" fill="#3b4d43"/><rect x="123" y="155" width="11" height="11" fill="#8aa88a"/><rect x="146" y="159" width="127" height="4" fill="#a7ba9b"/><rect x="109" y="191" width="205" height="29" fill="#3b4d43"/><rect x="123" y="200" width="11" height="11" fill="#8aa88a"/><rect x="146" y="204" width="127" height="4" fill="#a7ba9b"/><rect x="109" y="236" width="205" height="29" fill="#3b4d43"/><rect x="123" y="245" width="11" height="11" fill="#8aa88a"/><rect x="146" y="249" width="127" height="4" fill="#a7ba9b"/><path d="M368 197h40m-12 -12 12 12-12 12" fill="none" stroke="#b9add2" stroke-width="4"/><rect x="447" y="113" width="84" height="47" fill="#4e5960"/><text x="468" y="143" fill="#e2cfeb" font-family="monospace" font-size="14" letter-spacing="2">01</text><path d="M489 160v24" fill="none" stroke="#8b91a0" stroke-width="4"/><rect x="447" y="184" width="84" height="47" fill="#4e5960"/><text x="468" y="214" fill="#e2cfeb" font-family="monospace" font-size="14" letter-spacing="2">02</text><path d="M489 231v24" fill="none" stroke="#8b91a0" stroke-width="4"/><rect x="447" y="255" width="84" height="47" fill="#4e5960"/><text x="468" y="285" fill="#e2cfeb" font-family="monospace" font-size="14" letter-spacing="2">03</text></svg>