<svg xmlns="http://www.w3.org/2000/svg" viewBox="0 0 640 400" shape-rendering="crispEdges"><title>Cloud computing / practical study - original concept illustration, not project output</title><rect x="0" y="0" width="640" height="400" fill="#162321"/><rect x="0" y="0" width="1" height="400" fill="#1d2e29"/><rect x="24" y="0" width="1" height="400" fill="#1d2e29"/><rect x="48" y="0" width="1" height="400" fill="#1d2e29"/><rect x="72" y="0" width="1" height="400" fill="#1d2e29"/><rect x="96" y="0" width="1" height="400" fill="#1d2e29"/><rect x="120" y="0" width="1" height="400" fill="#1d2e29"/><rect x="144" y="0" width="1" height="400" fill="#1d2e29"/><rect x="168" y="0" width="1" height="400" fill="#1d2e29"/><rect x="192" y="0" width="1" height="400" fill="#1d2e29"/><rect x="216" y="0" width="1" height="400" fill="#1d2e29"/><rect x="240" y="0" width="1" height="400" fill="#1d2e29"/><rect x="264" y="0" width="1" height="400" fill="#1d2e29"/><rect x="288" y="0" width="1" height="400" fill="#1d2e29"/><rect x="312" y="0" width="1" height="400" fill="#1d2e29"/><rect x="336" y="0" width="1" height="400" fill="#1d2e29"/><rect x="360" y="0" width="1" height="400" fill="#1d2e29"/><rect x="384" y="0" width="1" height="400" fill="#1d2e29"/><rect x="408" y="0" width="1" height="400" fill="#1d2e29"/><rect x="432" y="0" width="1" height="400" fill="#1d2e29"/><rect x="456" y="0" width="1" height="400" fill="#1d2e29"/><rect x="480" y="0" width="1" height="400" fill="#1d2e29"/><rect x="504" y="0" width="1" height="400" fill="#1d2e29"/><rect x="528" y="0" width="1" height="400" fill="#1d2e29"/><rect x="552" y="0" width="1" height="400" fill="#1d2e29"/><rect x="576" y="0" width="1" height="400" fill="#1d2e29"/><rect x="600" y="0" width="1" height="400" fill="#1d2e29"/><rect x="624" y="0" width="1" height="400" fill="#1d2e29"/><rect x="0" y="0" width="640" height="1" fill="#1d2e29"/><rect x="0" y="24" width="640" height="1" fill="#1d2e29"/><rect x="0" y="48" width="640" height="1" fill="#1d2e29"/><rect x="0" y="72" width="640" height="1" fill="#1d2e29"/><rect x="0" y="96" width="640" height="1" fill="#1d2e29"/><rect x="0" y="120" width="640" height="1" fill="#1d2e29"/><rect x="0" y="144" width="640" height="1" fill="#1d2e29"/><rect x="0" y="168" width="640" height="1" fill="#1d2e29"/><rect x="0" y="192" width="640" height="1" fill="#1d2e29"/><rect x="0" y="216" width="640" height="1" fill="#1d2e29"/><rect x="0" y="240" width="640" height="1" fill="#1d2e29"/><rect x="0" y="264" width="640" height="1" fill="#1d2e29"/><rect x="0" y="288" width="640" height="1" fill="#1d2e29"/><rect x="0" y="312" width="640" height="1" fill="#1d2e29"/><rect x="0" y="336" width="640" height="1" fill="#1d2e29"/><rect x="0" y="360" width="640" height="1" fill="#1d2e29"/><rect x="0" y="384" width="640" height="1" fill="#1d2e29"/><rect x="26" y="27" width="6" height="6" fill="#ddbd86"/><text x="46" y="34" fill="#ddbd86" font-family="monospace" font-size="11" letter-spacing="2">CLOUD COMPUTING / PRACTICAL STUDY</text><rect x="37" y="67" width="11" height="2" fill="#4a6250"/><rect x="37" y="67" width="2" height="11" fill="#4a6250"/><rect x="592" y="67" width="11" height="2" fill="#4a6250"/><rect x="592" y="67" width="2" height="11" fill="#4a6250"/><rect x="37" y="350" width="11" height="2" fill="#4a6250"/><rect x="37" y="350" width="2" height="11" fill="#4a6250"/><rect x="592" y="350" width="11" height="2" fill="#4a6250"/><rect x="592" y="350" width="2" height="11" fill="#4a6250"/><rect x="96" y="136" width="116" height="139" fill="#584f39"/><rect x="101" y="141" width="106" height="129" fill="#25392e"/><rect x="109" y="154" width="90" height="24" fill="#596c49"/><rect x="117" y="161" width="8" height="8" fill="#cadd96"/><rect x="136" y="164" width="49" height="3" fill="#a2ac80"/><rect x="109" y="188" width="90" height="24" fill="#596c49"/><rect x="117" y="195" width="8" height="8" fill="#cadd96"/><rect x="136" y="198" width="49" height="3" fill="#a2ac80"/><rect x="109" y="222" width="90" height="24" fill="#596c49"/><rect x="117" y="229" width="8" height="8" fill="#cadd96"/><rect x="136" y="232" width="49" height="3" fill="#a2ac80"/><text x="131" y="300" fill="#ddbd86" font-family="monospace" font-size="11" letter-spacing="2">WEB</text><rect x="262" y="136" width="116" height="139" fill="#584f39"/><rect x="267" y="141" width="106" height="129" fill="#25392e"/><rect x="275" y="154" width="90" height="24" fill="#596c49"/><rect x="283" y="161" width="8" height="8" fill="#cadd96"/><rect x="302" y="164" width="49" height="3" fill="#a2ac80"/><rect x="275" y="188" width="90" height="24" fill="#596c49"/><rect x="283" y="195" width="8" height="8" fill="#cadd96"/><rect x="302" y="198" width="49" height="3" fill="#a2ac80"/><rect x="275" y="222" width="90" height="24" fill="#596c49"/><rect x="283" y="229" width="8" height="8" fill="#cadd96"/><rect x="302" y="232" width="49" height="3" fill="#a2ac80"/><text x="297" y="300" fill="#ddbd86" font-family="monospace" font-size="11" letter-spacing="2">APP</text><rect x="428" y="136" width="116" height="139" fill="#584f39"/><rect x="433" y="141" width="106" height="129" fill="#25392e"/><rect x="441" y="154" width="90" height="24" fill="#596c49"/><rect x="449" y="161" width="8" height="8" fill="#cadd96"/><rect x="468" y="164" width="49" height="3" fill="#a2ac80"/><rect x="441" y="188" width="90" height="24" fill="#596c49"/><rect x="449" y="195" width="8" height="8" fill="#cadd96"/><rect x="468" y="198" width="49" height="3" fill="#a2ac80"/><rect x="441" y="222" width="90" height="24" fill="#596c49"/><rect x="449" y="229" width="8" height="8" fill="#cadd96"/><rect x="468" y="232" width="49" height="3" fill="#a2ac80"/><text x="463" y="300" fill="#ddbd86" font-family="monospace" font-size="11" letter-spacing="2">DATA</text><path d="M154 121V89H486V121M320 89v32" fill="none" stroke="#d0b481" stroke-width="4"/></svg>