<svg xmlns="http://www.w3.org/2000/svg" viewBox="0 0 640 400" shape-rendering="crispEdges"><title>Debris / road segmentation - original concept illustration, not project output</title><rect x="0" y="0" width="640" height="400" fill="#162321"/><rect x="0" y="0" width="1" height="400" fill="#1d2e29"/><rect x="24" y="0" width="1" height="400" fill="#1d2e29"/><rect x="48" y="0" width="1" height="400" fill="#1d2e29"/><rect x="72" y="0" width="1" height="400" fill="#1d2e29"/><rect x="96" y="0" width="1" height="400" fill="#1d2e29"/><rect x="120" y="0" width="1" height="400" fill="#1d2e29"/><rect x="144" y="0" width="1" height="400" fill="#1d2e29"/><rect x="168" y="0" width="1" height="400" fill="#1d2e29"/><rect x="192" y="0" width="1" height="400" fill="#1d2e29"/><rect x="216" y="0" width="1" height="400" fill="#1d2e29"/><rect x="240" y="0" width="1" height="400" fill="#1d2e29"/><rect x="264" y="0" width="1" height="400" fill="#1d2e29"/><rect x="288" y="0" width="1" height="400" fill="#1d2e29"/><rect x="312" y="0" width="1" height="400" fill="#1d2e29"/><rect x="336" y="0" width="1" height="400" fill="#1d2e29"/><rect x="360" y="0" width="1" height="400" fill="#1d2e29"/><rect x="384" y="0" width="1" height="400" fill="#1d2e29"/><rect x="408" y="0" width="1" height="400" fill="#1d2e29"/><rect x="432" y="0" width="1" height="400" fill="#1d2e29"/><rect x="456" y="0" width="1" height="400" fill="#1d2e29"/><rect x="480" y="0" width="1" height="400" fill="#1d2e29"/><rect x="504" y="0" width="1" height="400" fill="#1d2e29"/><rect x="528" y="0" width="1" height="400" fill="#1d2e29"/><rect x="552" y="0" width="1" height="400" fill="#1d2e29"/><rect x="576" y="0" width="1" height="400" fill="#1d2e29"/><rect x="600" y="0" width="1" height="400" fill="#1d2e29"/><rect x="624" y="0" width="1" height="400" fill="#1d2e29"/><rect x="0" y="0" width="640" height="1" fill="#1d2e29"/><rect x="0" y="24" width="640" height="1" fill="#1d2e29"/><rect x="0" y="48" width="640" height="1" fill="#1d2e29"/><rect x="0" y="72" width="640" height="1" fill="#1d2e29"/><rect x="0" y="96" width="640" height="1" fill="#1d2e29"/><rect x="0" y="120" width="640" height="1" fill="#1d2e29"/><rect x="0" y="144" width="640" height="1" fill="#1d2e29"/><rect x="0" y="168" width="640" height="1" fill="#1d2e29"/><rect x="0" y="192" width="640" height="1" fill="#1d2e29"/><rect x="0" y="216" width="640" height="1" fill="#1d2e29"/><rect x="0" y="240" width="640" height="1" fill="#1d2e29"/><rect x="0" y="264" width="640" height="1" fill="#1d2e29"/><rect x="0" y="288" width="640" height="1" fill="#1d2e29"/><rect x="0" y="312" width="640" height="1" fill="#1d2e29"/><rect x="0" y="336" width="640" height="1" fill="#1d2e29"/><rect x="0" y="360" width="640" height="1" fill="#1d2e29"/><rect x="0" y="384" width="640" height="1" fill="#1d2e29"/><rect x="26" y="27" width="6" height="6" fill="#8fc7c0"/><text x="46" y="34" fill="#8fc7c0" font-family="monospace" font-size="11" letter-spacing="2">DEBRIS / ROAD SEGMENTATION</text><rect x="37" y="67" width="11" height="2" fill="#4a6250"/><rect x="37" y="67" width="2" height="11" fill="#4a6250"/><rect x="592" y="67" width="11" height="2" fill="#4a6250"/><rect x="592" y="67" width="2" height="11" fill="#4a6250"/><rect x="37" y="350" width="11" height="2" fill="#4a6250"/><rect x="37" y="350" width="2" height="11" fill="#4a6250"/><rect x="592" y="350" width="11" height="2" fill="#4a6250"/><rect x="592" y="350" width="2" height="11" fill="#4a6250"/><rect x="89" y="97" width="75" height="68" fill="#405344"/><rect x="94" y="102" width="65" height="58" fill="#53634c"/><rect x="180" y="97" width="82" height="68" fill="#405344"/><rect x="185" y="102" width="72" height="58" fill="#53634c"/><rect x="284" y="97" width="74" height="40" fill="#405344"/><rect x="289" y="102" width="64" height="30" fill="#53634c"/><rect x="384" y="97" width="135" height="65" fill="#405344"/><rect x="389" y="102" width="125" height="55" fill="#53634c"/><rect x="89" y="194" width="79" height="67" fill="#405344"/><rect x="94" y="199" width="69" height="57" fill="#53634c"/><rect x="195" y="207" width="60" height="68" fill="#405344"/><rect x="200" y="212" width="50" height="58" fill="#53634c"/><rect x="360" y="207" width="70" height="80" fill="#405344"/><rect x="365" y="212" width="60" height="70" fill="#53634c"/><rect x="455" y="201" width="63" height="55" fill="#405344"/><rect x="460" y="206" width="53" height="45" fill="#53634c"/><path d="M68 183H310V312M310 183H548" fill="none" stroke="#78cdb1" stroke-width="18"/><rect x="190" y="104" width="20" height="18" fill="#c49c73"/><rect x="195" y="108" width="22" height="21" fill="#b88060"/><rect x="222" y="126" width="20" height="18" fill="#c49c73"/><rect x="227" y="130" width="22" height="21" fill="#b88060"/><rect x="288" y="240" width="20" height="18" fill="#c49c73"/><rect x="293" y="244" width="22" height="21" fill="#b88060"/><rect x="480" y="108" width="20" height="18" fill="#c49c73"/><rect x="485" y="112" width="22" height="21" fill="#b88060"/><rect x="454" y="267" width="20" height="18" fill="#c49c73"/><rect x="459" y="271" width="22" height="21" fill="#b88060"/><rect x="180" y="95" width="75" height="64" fill="none" stroke="#dcaa78" stroke-width="2" stroke-dasharray="6 5"/><rect x="270" y="226" width="60" height="65" fill="none" stroke="#dcaa78" stroke-width="2" stroke-dasharray="6 5"/><rect x="440" y="91" width="96" height="73" fill="none" stroke="#dcaa78" stroke-width="2" stroke-dasharray="6 5"/><text x="90" y="339" fill="#88dfc1" font-family="monospace" font-size="11" letter-spacing="2">ROAD</text><rect x="69" y="329" width="10" height="10" fill="#88dfc1"/><text x="400" y="339" fill="#dcaa78" font-family="monospace" font-size="11" letter-spacing="2">DEBRIS</text><rect x="379" y="329" width="10" height="10" fill="#dcaa78"/></svg>